<svg width="22" height="36" viewBox="0 0 22 36" fill="none" xmlns="http://www.w3.org/2000/svg">
<path d="M14.848 0C16.4942 0 18.073 0.65395 19.237 1.81799C20.401 2.98203 21.055 4.5608 21.055 6.207V26.267C21.055 29.813 16.567 31.352 14.391 28.553L7.586 19.799V30.414C7.586 31.8955 6.99748 33.3163 5.9499 34.3639C4.90232 35.4115 3.4815 36 2 36C2.08142 36 2.16204 35.984 2.23726 35.9528C2.31249 35.9216 2.38083 35.876 2.43841 35.8184C2.49598 35.7608 2.54165 35.6925 2.57281 35.6173C2.60396 35.542 2.62 35.4614 2.62 35.38V16.18C2.62 12.633 7.108 11.094 9.285 13.894L16.09 22.647V1.241C16.09 0.556 15.534 0 14.848 0Z" fill="#CC66FF" fill-opacity="0.74"/>
<path d="M12.848 0C14.4942 0 16.073 0.65395 17.237 1.81799C18.401 2.98203 19.055 4.5608 19.055 6.207V26.267C19.055 29.813 14.567 31.352 12.391 28.553L5.586 19.799V30.414C5.586 31.8955 4.99748 33.3163 3.9499 34.3639C2.90232 35.4115 1.4815 36 0 36C0.0814196 36 0.162043 35.984 0.237265 35.9528C0.312486 35.9216 0.380834 35.876 0.438406 35.8184C0.495978 35.7608 0.541647 35.6925 0.572805 35.6173C0.603963 35.542 0.620001 35.4614 0.620001 35.38V16.18C0.620001 12.633 5.108 11.094 7.285 13.894L14.09 22.647V1.241C14.09 0.556 13.534 0 12.848 0Z" fill="#CC66FF"/>
</svg>
